<?xml version="1.0" encoding="UTF-8" standalone="no"?>
<!-- Created with Inkscape (http://www.inkscape.org/) -->

<svg
   width="128"
   height="128"
   viewBox="0 0 128 128"
   version="1.1"
   id="svg5"
   xml:space="preserve"
   inkscape:version="1.3.1 (91b66b0783, 2023-11-16)"
   sodipodi:docname="Craftimizer.svg"
   inkscape:export-filename="icon.png"
   inkscape:export-xdpi="96"
   inkscape:export-ydpi="96"
   xmlns:inkscape="http://www.inkscape.org/namespaces/inkscape"
   xmlns:sodipodi="http://sodipodi.sourceforge.net/DTD/sodipodi-0.dtd"
   xmlns:xlink="http://www.w3.org/1999/xlink"
   xmlns="http://www.w3.org/2000/svg"
   xmlns:svg="http://www.w3.org/2000/svg"><sodipodi:namedview
     id="namedview7"
     pagecolor="#000000"
     bordercolor="#ffffff"
     borderopacity="1"
     inkscape:showpageshadow="false"
     inkscape:pageopacity="0"
     inkscape:pagecheckerboard="false"
     inkscape:deskcolor="#505050"
     inkscape:document-units="px"
     showgrid="false"
     inkscape:zoom="4.796541"
     inkscape:cx="101.63574"
     inkscape:cy="69.946238"
     inkscape:window-width="1920"
     inkscape:window-height="1001"
     inkscape:window-x="-9"
     inkscape:window-y="-9"
     inkscape:window-maximized="1"
     inkscape:current-layer="layer1"
     inkscape:clip-to-page="true" /><defs
     id="defs2"><linearGradient
       id="linearGradient12"
       inkscape:collect="always"><stop
         style="stop-color:#ffe486;stop-opacity:1;"
         offset="0"
         id="stop12" /><stop
         style="stop-color:#ffde54;stop-opacity:1;"
         offset="1"
         id="stop13" /></linearGradient><linearGradient
       id="linearGradient1687"><stop
         style="stop-color:#eb5dff;stop-opacity:1;"
         offset="0"
         id="stop3" /><stop
         style="stop-color:#8469fa;stop-opacity:1;"
         offset="0.382662"
         id="stop15" /><stop
         style="stop-color:#71adff;stop-opacity:1;"
         offset="1"
         id="stop2" /></linearGradient><linearGradient
       id="linearGradient1687-1"><stop
         style="stop-color:#fad501;stop-opacity:1;"
         offset="0"
         id="stop9" /><stop
         style="stop-color:#fad501;stop-opacity:1;"
         offset="1"
         id="stop1685" /></linearGradient><radialGradient
       inkscape:collect="always"
       xlink:href="#linearGradient12"
       id="radialGradient13"
       cx="34.201473"
       cy="26.830467"
       fx="34.201473"
       fy="26.830467"
       r="40.223863"
       gradientUnits="userSpaceOnUse"
       gradientTransform="matrix(0.74957248,0,0,0.74957241,8.5649899,6.7190892)" /><radialGradient
       inkscape:collect="always"
       xlink:href="#linearGradient1687"
       id="radialGradient14"
       cx="49.823116"
       cy="31.999138"
       fx="49.823116"
       fy="31.999138"
       r="51.457153"
       gradientTransform="matrix(1.2893285,2.2331826,-2.6366511,1.5222713,69.428146,-136.32963)"
       gradientUnits="userSpaceOnUse" /></defs><g
     inkscape:label="Layer 1"
     inkscape:groupmode="layer"
     id="layer1"><rect
       style="fill:#f4fbff;fill-opacity:0;stroke:none;stroke-width:1"
       id="rect916"
       width="128"
       height="128"
       x="0"
       y="5.6884082e-06"
       rx="63.999992"
       ry="63.999992" /><path
       sodipodi:type="star"
       style="fill:url(#radialGradient13);stroke:none"
       id="path1"
       inkscape:flatsided="false"
       sodipodi:sides="12"
       sodipodi:cx="34.201473"
       sodipodi:cy="26.830467"
       sodipodi:r1="24.030556"
       sodipodi:r2="30.395407"
       sodipodi:arg1="0.38877738"
       sodipodi:arg2="0.65057677"
       inkscape:rounded="0"
       inkscape:randomized="0"
       inkscape:transform-center-x="0.44256225"
       inkscape:transform-center-y="2.3470697"
       transform="translate(14.39138,-2.960999)"
       clip-path="none" /><path
       id="path862"
       style="fill:url(#radialGradient14);stroke:none;stroke-width:0.170558"
       d="M 45.582031,6.0039062 C 44.873727,5.9631383 43.933195,6.1822163 43.0625,6.6132812 40.563792,7.8503477 36.105936,11.0845 35.941406,11.779297 c -0.07567,0.319549 0.26235,5.033813 0.451172,6.292969 0.126797,0.845549 0.191672,0.893545 2.392578,1.753906 0.750458,0.293362 1.490067,0.628978 1.642578,0.746094 0.461544,0.354427 1.34375,1.865614 1.34375,2.302734 0,2.289253 -5.793924,7.22021 -10.779296,9.173828 -1.046149,0.409954 -2.310255,1.014826 -2.808594,1.345703 -1.043008,0.69252 -1.314276,0.728791 -2.019532,0.261719 -0.298056,-0.197393 -0.800484,-0.339162 -1.203124,-0.339844 -0.579476,-9.42e-4 -0.802765,0.109303 -1.384766,0.685547 -0.629891,0.623653 -0.785733,0.692498 -1.681641,0.736328 -0.884231,0.04324 -1.037563,0.107329 -1.464843,0.619141 -0.438221,0.524918 -0.688921,0.631785 -1.572266,0.671875 -0.455478,0.02067 -2.458629,2.010872 -2.654297,2.636719 -0.09171,0.293329 -0.218573,1.137785 -0.283203,1.876953 -0.160841,1.83961 -0.370425,2.0413 -1.958984,1.884765 l -1.183594,-0.117187 -0.257813,0.613281 c -0.140978,0.337406 -0.255859,0.850217 -0.255859,1.138672 0,0.389916 -0.206364,0.745111 -0.804688,1.384766 -1.146618,1.22582 -2.1589917,1.659071 -3.0761715,1.320312 C 8.029982,46.637264 8,46.675879 8,47.236328 c 0,1.01397 1.0723205,1.781555 3.921875,2.806641 0.923088,0.332064 1.452085,0.40055 3.15625,0.40625 2.539831,0.0085 3.02516,-0.176569 3.162109,-1.199219 0.05074,-0.378906 0.26725,-0.932982 0.480469,-1.232422 0.213218,-0.299436 0.366837,-0.67903 0.341797,-0.84375 -0.08871,-0.583918 0.19128,-1.263661 0.498047,-1.207031 0.36719,0.06778 1.099999,2.13883 0.892578,2.523437 -0.07729,0.143319 -0.455956,0.589557 -0.839844,0.992188 -0.383889,0.402628 -0.697265,0.868134 -0.697265,1.035156 0,0.167021 0.354022,1.027749 0.787109,1.91211 1.133874,2.315384 1.143274,2.366051 0.658203,3.884765 -0.62258,1.949249 -0.583556,2.217204 0.742188,4.908203 0.646086,1.311427 1.492113,3.391391 1.896484,4.667969 0.879028,2.775054 1.017829,3.060069 2.904297,5.882813 1.42875,2.137859 4.009365,6.243961 4.421875,7.037109 0.109784,0.211091 0.421377,1.22663 0.691406,2.255859 0.877958,3.346376 1.941514,5.147302 4.830078,8.173828 3.741139,3.919818 5.54125,6.468256 7.367188,10.431641 1.176828,2.554415 1.394799,2.908945 2.46289,3.998045 0.644503,0.65718 1.248027,1.34754 1.341797,1.53516 0.09378,0.18761 0.757697,2.26029 1.47461,4.60547 0.716911,2.34519 1.411041,4.6091 1.542968,5.03125 0.131931,0.42212 0.477709,1.72779 0.767579,2.90039 0.289869,1.17258 0.73359,2.89786 0.986328,3.83593 0.252739,0.93807 0.466109,1.74412 0.474609,1.79102 0.23773,1.32112 0.37556,3.59811 0.4375,7.25 0.0095,0.56282 0.09774,1.48404 0.197266,2.04688 0.09952,0.56286 0.19784,2.55745 0.21875,4.43359 0.02091,1.87614 0.04749,3.42972 0.05859,3.45312 0.01114,0.0236 12.722961,0.043 28.248047,0.043 h 40.226562 v -0.43164 c 0,-1.32974 0.8118,-2.03336 2.47461,-2.15039 0.94661,-0.0666 1.10147,-0.18832 1.10547,-0.86328 0.002,-0.34054 -0.32638,-0.81498 -1.25195,-1.80469 l -1.25586,-1.34179 -0.9668,-2.88672 c -3.83972,-17.31082 -3.64088,-35.031197 -3.74023,-43.912112 v 0 c 0.005,-11.089727 -6.22086,-22.328377 -11.82617,-26.625 0.0938,-2.055972 -0.16682,-3.701546 0.33007,-4.568359 2.11382,-3.689757 -1.6474,-1.23365 -2.71289,-0.462891 -0.69845,0.50495 -1.40032,1.116778 -2.09765,1.863281 -0.0349,-0.04217 -0.068,-0.08229 -0.10352,-0.125 -0.18315,-2.607682 -0.32382,-5.310814 -0.17383,-6.109375 0.21202,-1.12824 0.31485,-2.574972 -0.29297,-2.521484 -0.27626,0.02433 -0.6998,0.358508 -1.32617,1.173828 -0.763571,0.995533 -1.601813,2.087333 -2.617187,3.958984 -3.736648,-0.873203 -7.880394,2.085623 -7.957032,2.140626 -4.231677,-0.284273 -9.685215,0.708402 -19.822265,2.378906 -5.178475,0.854667 -8.867895,1.312786 -11.666016,1.847656 -0.02071,0.0039 -0.04385,0.0078 -0.06445,0.01172 -3.549526,0.683672 -5.61942,1.501563 -7.087891,3.458984 -3.471377,4.623338 -2.648385,12.383879 4.107422,14.775391 3.674578,1.30085 7.380973,-0.583827 14.197266,2.662109 3.47411,4.886436 8.917182,8.366379 13.949219,4.921875 0,0 -1.78717,6.717822 -2.805479,11.62835 0,0 -1.492012,6.817641 -12.204287,8.533761 -0.520188,0.0833 -0.919554,-0.54952 -1.539062,-0.35938 -0.362549,0.11127 0,0 -1.57609,-0.19802 -1.02303,-0.12853 -0.455159,-0.23867 -1.052817,-1.76682 -0.57579,-1.47223 -4.763093,-9.707535 -5.777343,-10.220703 -1.014985,-0.513534 -0.934309,-0.388684 -2.185547,-3.322266 -0.724565,-1.698774 -1.260105,-2.616903 -2.638672,-4.519531 -1.558545,-2.151016 -1.867302,-2.709667 -3.115235,-5.628907 -0.761923,-1.782336 -1.884378,-4.185165 -2.49414,-5.339843 -0.747805,-1.416082 -1.570762,-3.415127 -2.529297,-6.140625 -1.768869,-5.029621 -2.800471,-7.598529 -4.345703,-10.832032 -1.34726,-2.81923 -1.748171,-3.456558 -3.548828,-5.638671 -1.419845,-1.72063 -1.694732,-1.962868 -2.8125,-2.488282 -0.828291,-0.389343 -0.883684,-0.474167 -1.0625,-1.625 C 32.92648,46.526747 32.887532,46.442784 32.25,46.142578 31.557289,45.816387 31.392629,45.324026 31.380859,43.548828 31.37744,43.032888 31.24245,41.829012 31.082031,40.875 c -0.341609,-2.031544 -0.318624,-2.086318 1.09375,-2.710938 0.573834,-0.253776 1.427246,-0.898711 2.322266,-1.755859 1.524106,-1.459612 3.16475,-2.403255 6.546875,-3.765625 1.664534,-0.670499 4.472781,-1.261907 5.21289,-1.097656 0.205496,0.04561 0.817144,0.128564 1.359376,0.183594 0.815916,0.08281 1.059548,0.185255 1.408203,0.599609 0.231702,0.275363 0.462042,0.669341 0.513671,0.875 0.05738,0.228627 0.438258,0.556116 0.980469,0.84375 1.483557,0.787004 3.334167,2.713212 4.269531,4.443359 0.704095,1.302371 0.838262,1.709448 0.978516,2.984375 0.08934,0.812075 0.206436,1.686689 0.259766,1.94336 0.09323,0.448652 0.113836,0.456622 0.5625,0.224609 0.256678,-0.132735 0.864431,-0.596987 1.349609,-1.033203 0.862583,-0.775537 0.900139,-0.852633 1.740235,-3.447266 0.47253,-1.459398 1.00134,-3.199876 1.173828,-3.867187 0.476959,-1.845236 1.121485,-5.36875 1.003906,-5.486328 -0.05732,-0.05732 -0.36255,0.01748 -0.679688,0.167968 -0.827701,0.39277 -1.222064,0.439989 -1.923828,0.22461 -0.674656,-0.207056 -1.415834,-0.872331 -2.089844,-1.875 -0.345353,-0.513656 -0.410917,-0.776968 -0.335937,-1.335938 0.166934,-1.244587 0.993482,-1.6937 2.445313,-1.328125 0.417544,0.10515 0.810013,0.141158 0.871093,0.08008 0.06109,-0.06109 -0.05633,-0.63182 -0.261719,-1.269532 -0.371391,-1.153131 -0.490332,-2.23771 -0.246093,-2.25 0.568569,-0.02863 1.518801,-0.222079 1.634765,-0.332031 0.196386,-0.186218 -0.274196,-1.065642 -1.3125,-2.451172 -1.038956,-1.386402 -3.400079,-3.245703 -4.566406,-3.595703 -0.435132,-0.130577 -1.122689,-0.478355 -1.527344,-0.771484 l -0.736328,-0.53125 -0.226562,0.43164 c -0.287631,0.549069 -0.642711,0.55115 -1,0.0059 -0.228404,-0.348653 -0.259502,-0.68626 -0.169922,-1.834026 0.213562,-2.73652 0.194608,-2.978833 -0.25586,-3.363281 C 50.621361,9.0513867 46.713742,6.3475108 46.203125,6.1328125 46.029847,6.0599544 45.818133,6.0174956 45.582031,6.0039062 Z"
       sodipodi:nodetypes="sssssssssscscsssscccssssscsscssssssssssssssssssscssscscssccccccccccccscccccccccccssssssssssssssssssssssscsssssssssssccssscssscccccsss" /><g
       id="g1"
       transform="matrix(22.109716,-2.2333002,2.2333002,22.109716,-930.51587,-206.20565)" /></g></svg>
