<?xml version="1.0" encoding="UTF-8" standalone="no"?>
<!-- Created with Inkscape (http://www.inkscape.org/) -->

<svg
   width="128"
   height="128"
   viewBox="0 0 128 128"
   version="1.1"
   id="svg5"
   xml:space="preserve"
   inkscape:version="1.3.1 (91b66b0783, 2023-11-16)"
   sodipodi:docname="icon.svg"
   inkscape:export-filename="icon.png"
   inkscape:export-xdpi="96"
   inkscape:export-ydpi="96"
   xmlns:inkscape="http://www.inkscape.org/namespaces/inkscape"
   xmlns:sodipodi="http://sodipodi.sourceforge.net/DTD/sodipodi-0.dtd"
   xmlns:xlink="http://www.w3.org/1999/xlink"
   xmlns="http://www.w3.org/2000/svg"
   xmlns:svg="http://www.w3.org/2000/svg"><sodipodi:namedview
     id="namedview7"
     pagecolor="#000000"
     bordercolor="#ffffff"
     borderopacity="1"
     inkscape:showpageshadow="false"
     inkscape:pageopacity="0"
     inkscape:pagecheckerboard="false"
     inkscape:deskcolor="#505050"
     inkscape:document-units="px"
     showgrid="false"
     inkscape:zoom="3.3916667"
     inkscape:cx="43.636363"
     inkscape:cy="49.385749"
     inkscape:window-width="1920"
     inkscape:window-height="1001"
     inkscape:window-x="-9"
     inkscape:window-y="-9"
     inkscape:window-maximized="1"
     inkscape:current-layer="layer1"
     inkscape:clip-to-page="true" /><defs
     id="defs2"><linearGradient
       id="linearGradient12"
       inkscape:collect="always"><stop
         style="stop-color:#ffe486;stop-opacity:1;"
         offset="0"
         id="stop12" /><stop
         style="stop-color:#ffde54;stop-opacity:1;"
         offset="1"
         id="stop13" /></linearGradient><linearGradient
       id="linearGradient1687"><stop
         style="stop-color:#eb5dff;stop-opacity:1;"
         offset="0"
         id="stop3" /><stop
         style="stop-color:#8469fa;stop-opacity:1;"
         offset="0.382662"
         id="stop15" /><stop
         style="stop-color:#71adff;stop-opacity:1;"
         offset="1"
         id="stop2" /></linearGradient><linearGradient
       id="linearGradient1687-1"><stop
         style="stop-color:#fad501;stop-opacity:1;"
         offset="0"
         id="stop9" /><stop
         style="stop-color:#fad501;stop-opacity:1;"
         offset="1"
         id="stop1685" /></linearGradient><radialGradient
       inkscape:collect="always"
       xlink:href="#linearGradient12"
       id="radialGradient13"
       cx="34.201473"
       cy="26.830467"
       fx="34.201473"
       fy="26.830467"
       r="40.223863"
       gradientUnits="userSpaceOnUse"
       gradientTransform="matrix(0.74957248,0,0,0.74957241,8.5649899,6.7190892)" /><radialGradient
       inkscape:collect="always"
       xlink:href="#linearGradient1687"
       id="radialGradient14"
       cx="49.823116"
       cy="31.999138"
       fx="49.823116"
       fy="31.999138"
       r="51.457153"
       gradientTransform="matrix(1.2893285,2.2331826,-2.6366511,1.5222713,69.428146,-136.32963)"
       gradientUnits="userSpaceOnUse" /></defs><g
     inkscape:label="Layer 1"
     inkscape:groupmode="layer"
     id="layer1"><rect
       style="fill:#f4fbff;fill-opacity:0;stroke:none;stroke-width:1"
       id="rect916"
       width="128"
       height="128"
       x="0"
       y="5.6884082e-06"
       rx="63.999992"
       ry="63.999992" /><path
       sodipodi:type="star"
       style="fill:url(#radialGradient13);stroke:none"
       id="path1"
       inkscape:flatsided="false"
       sodipodi:sides="12"
       sodipodi:cx="34.201473"
       sodipodi:cy="26.830467"
       sodipodi:r1="24.030556"
       sodipodi:r2="30.395407"
       sodipodi:arg1="0.38877738"
       sodipodi:arg2="0.65057677"
       inkscape:rounded="0"
       inkscape:randomized="0"
       inkscape:transform-center-x="0.44256225"
       inkscape:transform-center-y="2.3470697"
       transform="translate(14.39138,-2.960999)"
       clip-path="none" /><path
       style="fill:url(#radialGradient14);stroke:none;stroke-width:0.170558"
       d="m 53.177764,140.55348 c -0.0111,-0.0234 -0.03736,-1.57768 -0.05827,-3.45382 -0.02091,-1.87614 -0.119449,-3.87167 -0.218965,-4.43453 -0.09953,-0.56284 -0.188749,-1.48386 -0.198298,-2.04668 -0.06194,-3.65189 -0.199084,-5.92763 -0.436814,-7.24875 -0.0085,-0.0469 -0.222131,-0.85279 -0.474871,-1.79086 -0.252738,-0.93808 -0.696692,-2.66501 -0.986562,-3.83759 -0.28987,-1.1726 -0.634979,-2.47737 -0.76691,-2.89949 -0.131928,-0.42215 -0.826435,-2.68629 -1.543347,-5.03149 -0.716913,-2.34518 -1.380202,-4.41746 -1.473981,-4.60507 -0.09377,-0.18762 -0.697824,-0.87881 -1.342327,-1.53599 -1.068092,-1.0891 -1.286107,-1.44295 -2.462936,-3.99737 -1.82594,-3.963389 -3.626195,-6.512624 -7.367337,-10.432446 -2.888567,-3.026529 -3.95245,-4.826605 -4.830409,-8.172984 -0.270029,-1.02923 -0.580788,-2.044036 -0.690572,-2.255127 -0.41251,-0.793149 -2.992211,-4.899634 -4.420963,-7.037496 -1.88647,-2.822746 -2.027053,-3.107307 -2.906082,-5.882364 -0.404371,-1.276579 -1.248608,-3.356514 -1.894695,-4.667942 -1.325745,-2.691002 -1.366577,-2.960448 -0.743996,-4.909699 0.485071,-1.518716 0.476608,-1.568729 -0.657267,-3.884116 -0.433087,-0.884361 -0.787427,-1.744581 -0.787427,-1.911602 0,-0.167022 0.314089,-0.633102 0.697979,-1.035731 0.383888,-0.402631 0.76122,-0.84932 0.838513,-0.992639 0.207421,-0.384608 -0.523614,-2.454549 -0.890804,-2.522327 -0.306767,-0.05663 -0.587551,0.622336 -0.498842,1.206255 0.02504,0.16472 -0.128954,0.544484 -0.342172,0.84392 -0.213219,0.29944 -0.429186,0.854451 -0.47993,1.233357 -0.13695,1.022651 -0.62248,1.20661 -3.162314,1.198136 -1.704167,-0.0057 -2.232251,-0.07358 -3.15534,-0.405645 -2.8495573,-1.025087 -3.9228492,-1.793101 -3.9228492,-2.807072 0,-0.56045 0.030927,-0.598158 0.3837579,-0.467844 0.9171807,0.338759 1.9288053,-0.09607 3.0754253,-1.321892 0.598324,-0.639655 0.804785,-0.994925 0.804785,-1.384841 0,-0.288455 0.115345,-0.800521 0.256323,-1.137927 l 0.256322,-0.61347 1.184024,0.11667 c 1.588561,0.156535 1.797505,-0.04447 1.958346,-1.884082 0.06463,-0.739168 0.192541,-1.583942 0.284251,-1.877272 0.195668,-0.625847 2.199642,-2.615552 2.65512,-2.636217 0.883346,-0.04009 1.133364,-0.146973 1.571585,-0.671892 0.427281,-0.511812 0.580335,-0.576586 1.464567,-0.619827 0.895909,-0.04383 1.051766,-0.111995 1.681658,-0.735648 0.582002,-0.576245 0.805968,-0.687178 1.385444,-0.686236 0.402641,6.82e-4 0.904834,0.142599 1.202891,0.339992 0.705256,0.467072 0.976944,0.432038 2.019953,-0.260482 0.49834,-0.330878 1.762014,-0.937014 2.808164,-1.346968 4.985377,-1.95362 10.778004,-6.883514 10.778004,-9.172769 0,-0.43712 -0.881472,-1.948845 -1.343016,-2.303273 -0.152512,-0.117116 -0.891306,-0.452964 -1.641765,-0.746326 -2.200908,-0.860362 -2.266605,-0.908509 -2.393402,-1.754059 -0.188822,-1.259157 -0.526694,-5.97312 -0.451025,-6.292669 0.16453,-0.694798 4.622921,-3.9288364 7.121631,-5.1659041 1.160928,-0.5747539 2.446185,-0.7711576 3.139299,-0.479725 0.510618,0.2146985 4.419669,2.9180851 5.274871,3.6479491 0.450468,0.384448 0.468902,0.627269 0.25534,3.363792 -0.08958,1.147767 -0.05828,1.484895 0.170124,1.833507 0.35729,0.545291 0.711958,0.543269 0.999589,-0.0058 l 0.226793,-0.432848 0.735733,0.532962 c 0.404655,0.29313 1.09175,0.6398 1.526883,0.770377 1.166328,0.35 3.52757,2.209199 4.566527,3.595603 1.038305,1.385531 1.509642,2.265457 1.313256,2.451675 -0.115964,0.109952 -1.066252,0.302349 -1.634822,0.33098 -0.244239,0.01229 -0.125874,1.097224 0.245518,2.250356 0.205388,0.637712 0.323456,1.209454 0.262369,1.270543 -0.06108,0.06108 -0.452691,0.02505 -0.870236,-0.0801 -1.451832,-0.365576 -2.279241,0.08372 -2.446175,1.328309 -0.07498,0.55897 -0.0089,0.821412 0.336454,1.335068 0.67401,1.00267 1.414955,1.667284 2.089612,1.87434 0.701764,0.215379 1.095189,0.169749 1.922891,-0.223021 0.317138,-0.150491 0.623511,-0.226725 0.68083,-0.169405 0.117579,0.117578 -0.527768,3.642234 -1.004728,5.487472 -0.172488,0.667312 -0.700226,2.407347 -1.172757,3.866747 -0.840096,2.594635 -0.878699,2.671038 -1.741283,3.446576 -0.485179,0.436216 -1.092152,0.901721 -1.348831,1.034456 -0.448664,0.232013 -0.470436,0.223309 -0.563663,-0.225344 -0.05333,-0.256671 -0.170065,-1.1311 -0.259404,-1.943175 -0.140254,-1.274929 -0.273751,-1.682405 -0.977846,-2.984777 -0.935365,-1.730149 -2.785462,-3.655376 -4.26902,-4.442381 -0.542212,-0.287634 -0.923279,-0.61574 -0.980661,-0.844367 -0.05163,-0.205659 -0.283428,-0.599226 -0.515131,-0.874589 -0.348655,-0.414354 -0.591242,-0.517914 -1.407159,-0.600719 -0.542232,-0.05503 -1.154012,-0.137367 -1.359508,-0.182972 -0.74011,-0.164251 -3.549033,0.427112 -5.213569,1.097612 -3.382128,1.362371 -5.023014,2.30618 -6.547122,3.765794 -0.895021,0.857149 -1.748515,1.502663 -2.322349,1.75644 -1.412376,0.62462 -1.434391,0.679229 -1.092781,2.710775 0.160419,0.954013 0.29447,2.156698 0.297889,2.672639 0.01177,1.7752 0.177382,2.269208 0.870094,2.595399 0.637533,0.300206 0.676856,0.382791 0.916392,1.924405 0.178817,1.150834 0.234369,1.235791 1.06266,1.625135 1.117769,0.525414 1.392843,0.76888 2.812689,2.489511 1.800659,2.182116 2.200609,2.817548 3.54787,5.636781 1.545234,3.233506 2.576117,5.803835 4.344988,10.833461 0.958536,2.725501 1.78193,4.72403 2.529735,6.140113 0.609763,1.154679 1.732052,3.557692 2.493976,5.34003 1.247934,2.919242 1.556896,3.477418 3.115442,5.628436 1.378569,1.90263 1.914895,2.821029 2.63946,4.519805 1.25124,2.933585 1.169784,2.809681 2.18477,3.323215 1.014252,0.513169 1.20209,0.747715 1.777881,2.219945 0.597658,1.528151 0.630386,1.547754 1.348449,0.807832 0.342076,-0.352483 0.918585,-0.731916 1.281134,-0.843181 0.619509,-0.19014 0.712073,-0.16848 1.538152,0.359955 1.150036,0.735673 1.710257,1.423432 2.058367,2.526947 0.559282,1.77295 0.555425,1.76796 1.811907,2.3471 0.65286,0.30093 1.295533,0.5055 1.428161,0.4546 0.132628,-0.0508 0.328096,-0.42269 0.434376,-0.82619 0.106274,-0.40351 0.343307,-0.99215 0.526728,-1.30808 0.18342,-0.31593 0.413396,-0.96831 0.511057,-1.44975 0.09765,-0.481428 0.328081,-1.206895 0.512051,-1.612147 0.268056,-0.590484 0.315381,-0.963095 0.238286,-1.876145 -0.05983,-0.708608 -0.0047,-1.558441 0.146047,-2.247955 0.242181,-1.108328 0.152061,-1.834866 -0.167139,-1.347474 -0.08334,0.12725 -0.318221,0.693552 -0.521963,1.258453 -0.359769,0.997508 -0.370822,1.009027 -0.383755,0.399839 -0.02262,-1.065272 0.336708,-3.221332 0.697627,-4.185973 0.466261,-1.246195 1.81266,-3.220125 2.87281,-4.21177 0.586416,-0.548525 1.501107,-1.112534 2.790963,-1.720942 1.851797,-0.873466 1.975179,-0.966499 3.540249,-2.669396 0.891874,-0.970412 2.22418,-2.531902 2.96068,-3.469974 2.268361,-2.889181 3.568799,-4.227413 6.405747,-6.591894 3.461778,-2.885258 5.166995,-3.933208 7.162345,-4.401664 0.816662,-0.191725 1.961123,-0.348593 2.543253,-0.348593 0.741589,0 1.389839,-0.132584 2.165449,-0.442879 0.60886,-0.243583 1.15123,-0.398688 1.20523,-0.344674 0.0541,0.05403 -0.0739,0.643801 -0.28444,1.310637 -0.21045,0.666837 -0.40365,1.4038 -0.42933,1.637696 -0.0256,0.233895 -0.37796,0.762814 -0.78285,1.175371 -1.12266,1.143912 -0.65777,1.113009 0.57273,-0.03807 1.34901,-1.26194 3.55908,-2.573056 5.0448,-2.992815 0.62127,-0.17553 1.78198,-0.392098 2.57934,-0.481257 0.79737,-0.08915 1.77276,-0.248611 2.1675,-0.354342 0.84621,-0.226643 2.0391,-1.193611 2.38327,-1.931901 0.13399,-0.2874 0.21263,-0.366774 0.17475,-0.176389 -0.0378,0.190385 0.0347,0.442852 0.16121,0.561039 0.19723,0.18424 0.31211,0.676227 0.25371,1.086479 -0.0243,0.169927 0.62524,0.349589 0.82268,0.22758 0.0978,-0.06054 0.15815,0.135614 0.14546,0.47387 -0.0118,0.317446 0.0287,0.658781 0.0904,0.75852 0.18034,0.291775 0.76238,0.04408 1.24992,-0.531926 l 0.45191,-0.533941 -0.12107,0.488933 c -0.31916,1.289078 -0.31462,1.432997 0.0569,1.804567 0.24492,0.244904 0.48129,0.331528 0.70818,0.259513 0.18733,-0.05945 0.45868,-0.0102 0.60299,0.109686 0.14433,0.119781 0.58197,0.261709 0.97255,0.3154 l 0.71009,0.09762 -0.63298,0.434821 c -0.82923,0.569611 -1.3554,1.252197 -1.22575,1.590091 0.0569,0.148507 0.16703,0.230825 0.24452,0.182928 0.0775,-0.0479 0.18911,-0.009 0.24804,0.08626 0.059,0.09535 0.24715,0.173341 0.41829,0.173341 0.17112,0 0.34992,0.14824 0.3973,0.329422 0.0553,0.211202 0.33684,0.39692 0.78469,0.517516 0.38418,0.103451 0.91083,0.384093 1.17028,0.623642 0.30172,0.278546 0.36493,0.401618 0.17538,0.341426 -0.75232,-0.238889 -1.98186,-0.30198 -2.32336,-0.119219 -0.44127,0.236163 -0.47699,0.521669 -0.0664,0.531963 0.16417,0.0041 -0.004,0.115271 -0.37388,0.247008 -1.076,0.383308 -1.51785,0.81895 -1.92286,1.895849 -2.14037,5.691283 -2.01265,5.444813 -4.11967,7.95078 -1.3818,1.643452 -2.00522,2.119632 -4.41539,3.372471 -0.68806,0.357652 -2.40897,0.691033 -4.7695,0.92396 -1.94659,0.192081 -2.36178,0.564617 -1.41193,1.266876 0.28142,0.208064 0.51168,0.504361 0.51168,0.658439 0,0.154074 0.38376,0.721351 0.8528,1.260616 0.46903,0.539264 0.85279,1.031437 0.85279,1.093719 0,0.06227 -0.36457,-0.208827 -0.81015,-0.602466 -1.26628,-1.118649 -2.41654,-1.727597 -3.05238,-1.615949 -0.39938,0.07013 -0.944682,-0.08664 -2.131982,-0.612922 -1.205105,-0.534173 -1.87696,-0.725519 -2.74661,-0.782263 -0.674096,-0.04399 -1.151277,-0.0072 -1.151277,0.08863 0,0.09006 0.262522,0.553875 0.583397,1.030684 0.784373,1.16557 1.59151,3.311525 1.817074,4.831054 0.295847,1.993144 0.330662,2.064189 1.088966,2.221741 0.811003,0.168497 1.132875,0.441295 1.965572,1.665842 1.48536,2.184388 2.02204,3.739288 2.70791,7.845698 0.60283,3.6092 0.77539,5.08433 0.51378,4.39189 -0.17622,-0.46646 -0.39196,-0.59493 -0.55528,-0.33067 -0.26673,0.43158 1.2763,7.85283 1.95174,9.38698 0.45044,1.02306 1.49382,2.74976 1.9833,3.28217 0.34807,0.37859 0.38055,0.51011 0.22613,0.91619 -0.13236,0.34814 -0.12595,0.5396 0.0243,0.72048 0.3713,0.44739 1.13871,0.73552 1.95901,0.73552 0.74763,0 0.78362,0.0188 0.4775,0.25046 -0.8103,0.613 -2.16687,0.40613 -3.53214,-0.53863 -0.67249,-0.46537 -0.88831,-0.46313 -0.70778,0.008 0.11643,0.30344 2.18881,1.81586 2.48816,1.81586 0.11557,0 0.10256,0.0972 -0.0348,0.26283 -0.18343,0.22105 -0.13002,0.35372 0.33596,0.83449 l 0.55408,0.57167 -0.85755,-0.42439 c -0.89583,-0.44336 -1.86745,-0.59889 -1.91464,-0.30653 -0.0152,0.0937 0.49937,0.38435 1.14341,0.64561 0.644,0.26128 1.30346,0.64505 1.4654,0.8528 0.16196,0.20776 0.72919,1.67658 1.26054,3.26408 l 0.96607,2.88635 1.25521,1.34219 c 0.92557,0.98971 1.2545,1.46348 1.25257,1.80402 -0.004,0.67496 -0.15939,0.79634 -1.106,0.86298 -1.66281,0.11703 -2.47312,0.82203 -2.47312,2.15177 v 0.43169 H 81.42548 c -15.525102,0 -28.236575,-0.0192 -28.247716,-0.0428 z m 49.359706,-14.43462 c 0.0973,-0.0973 -0.11946,-0.52597 -0.56233,-1.11257 -0.7227,-0.95721 -1.13135,-1.22539 -0.97891,-0.64243 0.0449,0.17157 -0.023,0.45488 -0.15066,0.62956 -0.32248,0.44104 -0.29015,1.05525 0.0662,1.25841 0.33768,0.19247 1.38594,0.10666 1.62565,-0.13297 z m 2.76622,-0.0202 c -0.058,-0.0937 -0.25893,-0.17056 -0.44653,-0.17056 -0.18762,0 -0.29368,0.0768 -0.2357,0.17056 0.058,0.0937 0.2589,0.17056 0.44652,0.17056 0.18761,0 0.29369,-0.0768 0.23571,-0.17056 z m -0.25584,-2.37806 c 0,-0.17946 -0.62846,-1.31925 -0.9458,-1.71534 -0.11274,-0.14071 -0.29738,-0.54365 -0.41033,-0.89544 -0.11294,-0.35178 -0.31599,-0.63959 -0.45121,-0.63959 -0.17708,0 -0.21593,-0.11928 -0.13885,-0.42639 0.0625,-0.24913 0.0336,-0.42641 -0.0696,-0.42641 -0.0971,0 -0.42066,-0.42668 -0.71904,-0.94818 -0.56957,-0.99552 -0.90914,-1.17377 -0.43841,-0.23015 0.38051,0.76272 0.34164,0.96969 -0.0811,0.4322 -0.78955,-1.00375 -0.8192,0.20855 -0.0379,1.55084 0.23031,0.39569 0.77745,1.09085 1.21588,1.54483 0.43842,0.45398 1.00129,1.07044 1.25078,1.36994 0.44166,0.53009 0.82556,0.70852 0.82556,0.38369 z M 73.122607,112.66542 c 0.05992,-0.41991 -0.129179,-0.49495 -0.446787,-0.17735 -0.305547,0.30556 -0.248325,0.68148 0.0938,0.61626 0.164161,-0.0312 0.323004,-0.22879 0.35298,-0.43891 z m -1.010242,-0.81434 c 0.490691,-0.55886 0.692214,-1.1027 0.408616,-1.1027 -0.216508,0 -1.4143,1.25713 -1.4143,1.48437 0,0.40628 0.470683,0.22766 1.005684,-0.38167 z m 2.351857,-2.15578 c 0.445112,-0.41815 0.518207,-0.82307 0.148581,-0.82307 -0.272155,0 -0.777184,0.63424 -0.777184,0.97603 0,0.31333 0.178509,0.26989 0.628603,-0.15296 z m -3.498554,-1.46267 c 0.429934,-0.50726 0.993807,-1.58194 0.993807,-1.89407 0,-0.16331 -0.228741,-0.94563 -0.508312,-1.73848 -0.279571,-0.79286 -0.509825,-1.53996 -0.511676,-1.66024 -0.0019,-0.12026 -0.120255,-0.49842 -0.263117,-0.84035 -0.383342,-0.91746 -0.658432,-0.4908 -0.770528,1.19508 -0.07625,1.1466 -0.176314,1.52151 -0.554722,2.07817 -0.253935,0.37356 -0.461702,0.78298 -0.461702,0.90984 0,0.2529 1.512617,2.24854 1.704312,2.24854 0.06544,0 0.232802,-0.13432 0.371938,-0.29849 z"
       id="path862" /></g></svg>
